<mxfile host="65bd71144e" modified="2021-01-23T10:02:47.992Z" agent="5.0 (Macintosh; Intel Mac OS X 10_15_7) AppleWebKit/537.36 (KHTML, like Gecko) Code/1.52.1 Chrome/83.0.4103.122 Electron/9.3.5 Safari/537.36" etag="fso3RTaPDBuN3c8Dq_Fg" version="13.10.0" type="embed">
    <diagram id="Hk7sN2Sk0IN1osVR8bq6" name="ページ1">
        <mxGraphModel dx="936" dy="785" grid="0" gridSize="10" guides="1" tooltips="1" connect="1" arrows="1" fold="1" page="0" pageScale="1" pageWidth="850" pageHeight="1100" math="0" shadow="0">
            <root>
                <mxCell id="0"/>
                <mxCell id="1" parent="0"/>
                <mxCell id="15" value="users" style="swimlane;fontStyle=0;childLayout=stackLayout;horizontal=1;startSize=26;horizontalStack=0;resizeParent=1;resizeParentMax=0;resizeLast=0;collapsible=1;marginBottom=0;align=center;fontSize=14;" parent="1" vertex="1">
                    <mxGeometry x="180" y="110" width="300" height="270" as="geometry"/>
                </mxCell>
                <mxCell id="16" value="nickname              string          null: false" style="text;strokeColor=none;fillColor=none;spacingLeft=4;spacingRight=4;overflow=hidden;rotatable=0;points=[[0,0.5],[1,0.5]];portConstraint=eastwest;fontSize=12;" parent="15" vertex="1">
                    <mxGeometry y="26" width="300" height="30" as="geometry"/>
                </mxCell>
                <mxCell id="17" value="email                     string          null: false, unique:true" style="text;strokeColor=none;fillColor=none;spacingLeft=4;spacingRight=4;overflow=hidden;rotatable=0;points=[[0,0.5],[1,0.5]];portConstraint=eastwest;fontSize=12;" parent="15" vertex="1">
                    <mxGeometry y="56" width="300" height="30" as="geometry"/>
                </mxCell>
                <mxCell id="18" value="password              integer    　null: false&#10;&#10;last_name            string          null: false&#10;&#10;first_name            string          null: false&#10;&#10;last_name_kana  string          null: false&#10;&#10;first_name_kana  string          null: false&#10;&#10;birthday                integer        null: false&#10;" style="text;strokeColor=none;fillColor=none;spacingLeft=4;spacingRight=4;overflow=hidden;rotatable=0;points=[[0,0.5],[1,0.5]];portConstraint=eastwest;fontSize=12;" parent="15" vertex="1">
                    <mxGeometry y="86" width="300" height="184" as="geometry"/>
                </mxCell>
                <mxCell id="31" value="items" style="swimlane;fontStyle=0;childLayout=stackLayout;horizontal=1;startSize=26;horizontalStack=0;resizeParent=1;resizeParentMax=0;resizeLast=0;collapsible=1;marginBottom=0;align=center;fontSize=14;" parent="1" vertex="1">
                    <mxGeometry x="740" y="105" width="340" height="280" as="geometry"/>
                </mxCell>
                <mxCell id="32" value="image                     ActiveStorageで実装&#10;&#10;name                        string            null: false &#10;&#10;text                           string            null: false&#10;&#10;category_id               integer          null: false&#10;&#10;condition_id               integer         null: false&#10;&#10;purefecture_id           integer         null: false&#10;&#10;shipment_source_id  integer         null: false&#10;&#10;selling_price              integer         null: false&#10;&#10;user                           references   null: false, foreign_key: true" style="text;strokeColor=none;fillColor=none;spacingLeft=4;spacingRight=4;overflow=hidden;rotatable=0;points=[[0,0.5],[1,0.5]];portConstraint=eastwest;fontSize=12;" parent="31" vertex="1">
                    <mxGeometry y="26" width="340" height="254" as="geometry"/>
                </mxCell>
                <mxCell id="48" value="orders" style="swimlane;fontStyle=0;childLayout=stackLayout;horizontal=1;startSize=26;horizontalStack=0;resizeParent=1;resizeParentMax=0;resizeLast=0;collapsible=1;marginBottom=0;align=center;fontSize=14;" parent="1" vertex="1">
                    <mxGeometry x="460" y="440" width="320" height="100" as="geometry"/>
                </mxCell>
                <mxCell id="49" value="item           references    null: false, foreign_key:true&#10;&#10;user           references    null: false, foreign_key:true" style="text;strokeColor=none;fillColor=none;spacingLeft=4;spacingRight=4;overflow=hidden;rotatable=0;points=[[0,0.5],[1,0.5]];portConstraint=eastwest;fontSize=12;" parent="48" vertex="1">
                    <mxGeometry y="26" width="320" height="74" as="geometry"/>
                </mxCell>
                <mxCell id="52" value="street_addresses" style="swimlane;fontStyle=0;childLayout=stackLayout;horizontal=1;startSize=26;horizontalStack=0;resizeParent=1;resizeParentMax=0;resizeLast=0;collapsible=1;marginBottom=0;align=center;fontSize=14;" parent="1" vertex="1">
                    <mxGeometry x="450" y="670" width="340" height="220" as="geometry"/>
                </mxCell>
                <mxCell id="53" value="postcode                integer       null: false&#10;&#10;prefectures_id        integer         null: false&#10;&#10;municipality            string         null: false&#10;&#10;address                  string         null: false&#10;&#10;optional_address    string    &#10;&#10;phone_number       integer       null: false&#10;&#10;order                      references  null: false, foreign_key: true" style="text;strokeColor=none;fillColor=none;spacingLeft=4;spacingRight=4;overflow=hidden;rotatable=0;points=[[0,0.5],[1,0.5]];portConstraint=eastwest;fontSize=12;" parent="52" vertex="1">
                    <mxGeometry y="26" width="340" height="194" as="geometry"/>
                </mxCell>
                <mxCell id="56" value="" style="edgeStyle=entityRelationEdgeStyle;fontSize=12;html=1;endArrow=ERmany;endFill=0;startArrow=ERone;startFill=0;jumpSize=6;endSize=10;startSize=10;entryX=-0.018;entryY=0.413;entryDx=0;entryDy=0;entryPerimeter=0;exitX=1.002;exitY=0.23;exitDx=0;exitDy=0;exitPerimeter=0;" parent="1" edge="1" target="32" source="18">
                    <mxGeometry width="100" height="100" relative="1" as="geometry">
                        <mxPoint x="425" y="244.33" as="sourcePoint"/>
                        <mxPoint x="635" y="244.33" as="targetPoint"/>
                    </mxGeometry>
                </mxCell>
                <mxCell id="60" value="" style="edgeStyle=entityRelationEdgeStyle;fontSize=12;html=1;endArrow=ERoneToMany;entryX=0;entryY=0.5;entryDx=0;entryDy=0;exitX=0.431;exitY=1;exitDx=0;exitDy=0;exitPerimeter=0;endSize=10;startSize=10;startArrow=ERone;startFill=0;" parent="1" source="18" target="49" edge="1">
                    <mxGeometry width="100" height="100" relative="1" as="geometry">
                        <mxPoint x="120" y="440" as="sourcePoint"/>
                        <mxPoint x="470" y="460" as="targetPoint"/>
                    </mxGeometry>
                </mxCell>
                <mxCell id="63" value="" style="edgeStyle=entityRelationEdgeStyle;fontSize=12;html=1;endArrow=ERone;startArrow=ERone;entryX=0.534;entryY=1.004;entryDx=0;entryDy=0;entryPerimeter=0;endFill=0;startFill=0;endSize=10;startSize=10;exitX=1;exitY=0.5;exitDx=0;exitDy=0;" parent="1" source="49" target="32" edge="1">
                    <mxGeometry width="100" height="100" relative="1" as="geometry">
                        <mxPoint x="520" y="600" as="sourcePoint"/>
                        <mxPoint x="620" y="500" as="targetPoint"/>
                    </mxGeometry>
                </mxCell>
                <mxCell id="64" value="" style="edgeStyle=entityRelationEdgeStyle;fontSize=12;html=1;endArrow=ERone;startArrow=ERone;exitX=0.5;exitY=0;exitDx=0;exitDy=0;entryX=0.531;entryY=1;entryDx=0;entryDy=0;entryPerimeter=0;endFill=0;endSize=10;startSize=10;startFill=0;" parent="1" source="52" target="49" edge="1">
                    <mxGeometry width="100" height="100" relative="1" as="geometry">
                        <mxPoint x="370" y="590" as="sourcePoint"/>
                        <mxPoint x="470" y="490" as="targetPoint"/>
                    </mxGeometry>
                </mxCell>
            </root>
        </mxGraphModel>
    </diagram>
</mxfile>